<svg version="1.1" xmlns="http://www.w3.org/2000/svg" viewBox="0 0 722.0093688964844 715.6476440429688" width="1444.0187377929688" height="1431.2952880859375">
  <!-- svg-source:excalidraw -->
  
  <defs>
    <style class="style-fonts">
      @font-face {
        font-family: "Virgil";
        src: url("https://excalidraw.com/Virgil.woff2");
      }
      @font-face {
        font-family: "Cascadia";
        src: url("https://excalidraw.com/Cascadia.woff2");
      }
    </style>
  </defs>
  <rect x="0" y="0" width="722.0093688964844" height="715.6476440429688" fill="#ffffff"></rect><g stroke-linecap="round" transform="translate(195.31320190429688 544.2155151367188) rotate(0 123 65)"><path d="M32.5 0 M32.5 0 C75.9 -1.41, 121.31 -0.6, 213.5 0 M32.5 0 C89.56 -0.33, 147.32 -1.01, 213.5 0 M213.5 0 C236.49 0.84, 247.18 12.56, 246 32.5 M213.5 0 C236.18 0.41, 247.77 11.56, 246 32.5 M246 32.5 C246.1 54.65, 244.76 76.97, 246 97.5 M246 32.5 C245.12 49.75, 245.02 65.26, 246 97.5 M246 97.5 C247.29 119.09, 235.06 129.91, 213.5 130 M246 97.5 C245.03 119.55, 235.9 130.86, 213.5 130 M213.5 130 C157.6 130.66, 106.12 128.9, 32.5 130 M213.5 130 C161.53 130.83, 110.63 132.4, 32.5 130 M32.5 130 C10.09 128.28, -1.2 119.67, 0 97.5 M32.5 130 C11.96 127.78, -1.11 117.99, 0 97.5 M0 97.5 C0.31 86.24, -1.64 70.55, 0 32.5 M0 97.5 C-0.98 76.62, -1.2 55.33, 0 32.5 M0 32.5 C-1.18 9.44, 11.73 1.94, 32.5 0 M0 32.5 C0.54 10.83, 12.8 2.26, 32.5 0" stroke="#000000" stroke-width="1" fill="none"></path></g><g stroke-linecap="round" transform="translate(132.19107055664062 250.7083740234375) rotate(0 192 81.773193359375)"><path d="M40.89 0 M40.89 0 C140.09 0.78, 241.22 0.4, 343.11 0 M40.89 0 C101.89 -1.94, 163 -1.13, 343.11 0 M343.11 0 C371.35 -1.93, 383.03 12.6, 384 40.89 M343.11 0 C368.1 -0.29, 384.14 13.89, 384 40.89 M384 40.89 C383.85 74.11, 384.54 103.73, 384 122.66 M384 40.89 C382.75 68.14, 383.79 97.76, 384 122.66 M384 122.66 C384.47 149.92, 372.08 165.51, 343.11 163.55 M384 122.66 C382.17 149.68, 369.39 162.4, 343.11 163.55 M343.11 163.55 C242.58 164.96, 142.96 164.59, 40.89 163.55 M343.11 163.55 C257.94 161.53, 174.14 162.19, 40.89 163.55 M40.89 163.55 C15.31 164.48, 0.89 149.45, 0 122.66 M40.89 163.55 C15 163.8, 1.02 148.69, 0 122.66 M0 122.66 C2.39 96.06, 1.95 70.8, 0 40.89 M0 122.66 C-0.5 100.87, -0.66 78.21, 0 40.89 M0 40.89 C0.42 12.01, 15.36 -1.08, 40.89 0 M0 40.89 C0.78 11.62, 14.23 -0.59, 40.89 0" stroke="#000000" stroke-width="1" fill="none"></path></g><g transform="translate(246.81320190429688 596.7155151367188) rotate(0 71.5 12.5)"><text x="71.5" y="18" font-family="Virgil, Segoe UI Emoji" font-size="20px" fill="#000000" text-anchor="middle" style="white-space: pre;" direction="ltr">DB (Postgres)</text></g><g transform="translate(222.69107055664062 319.9815673828125) rotate(0 101.5 12.5)"><text x="101.5" y="18" font-family="Virgil, Segoe UI Emoji" font-size="20px" fill="#000000" text-anchor="middle" style="white-space: pre;" direction="ltr">REST API (Go lang)</text></g><g stroke-linecap="round" transform="translate(139.36447143554688 43.312469482421875) rotate(0 186 51)"><path d="M25.5 0 M25.5 0 C143.49 1.88, 258.61 1.05, 346.5 0 M25.5 0 C150.86 -0.49, 277.47 0.3, 346.5 0 M346.5 0 C363.33 0.2, 371.57 9.62, 372 25.5 M346.5 0 C365.37 -2, 371.66 8.8, 372 25.5 M372 25.5 C372.29 42.88, 370.68 63.32, 372 76.5 M372 25.5 C371.31 42.33, 371.13 60.08, 372 76.5 M372 76.5 C372.63 91.85, 362.91 102.17, 346.5 102 M372 76.5 C373.3 94.13, 364.84 102.33, 346.5 102 M346.5 102 C263.98 105.42, 179.57 104.14, 25.5 102 M346.5 102 C277.22 104.19, 209.12 104.16, 25.5 102 M25.5 102 C9.1 101.9, 0.86 93.16, 0 76.5 M25.5 102 C7.25 100.5, 0.65 94.95, 0 76.5 M0 76.5 C-0.94 65.68, -1.09 57.26, 0 25.5 M0 76.5 C0.41 65.3, -0.93 53.83, 0 25.5 M0 25.5 C0.85 8.89, 7.3 0.26, 25.5 0 M0 25.5 C-0.17 6.51, 9.64 1.58, 25.5 0" stroke="#000000" stroke-width="1" fill="none"></path></g><g transform="translate(203.36447143554688 81.81246948242188) rotate(0 122 12.5)"><text x="122" y="18" font-family="Virgil, Segoe UI Emoji" font-size="20px" fill="#000000" text-anchor="middle" style="white-space: pre;" direction="ltr">UI (React + Typescript)</text></g><g stroke-linecap="round"><g transform="translate(303.83474572636567 158.4290348397442) rotate(0 -5.178364261345848 35.343122001140244)"><path d="M0.98 -0.99 C-0.64 10.63, -8.76 58.21, -10.72 70.11 M0.03 1.11 C-1.6 12.9, -9.46 60.48, -11.33 71.67" stroke="#000000" stroke-width="1" fill="none"></path></g><g transform="translate(303.83474572636567 158.4290348397442) rotate(0 -5.178364261345848 35.343122001140244)"><path d="M-18.49 43.24 C-15.48 49.42, -13.79 54.66, -10.47 71.33 M-16.22 41.26 C-16.33 50.08, -14.97 56.54, -12.04 72.64" stroke="#000000" stroke-width="1" fill="none"></path></g><g transform="translate(303.83474572636567 158.4290348397442) rotate(0 -5.178364261345848 35.343122001140244)"><path d="M1.75 46.59 C0.43 52.22, -2.22 56.74, -10.47 71.33 M4.03 44.61 C-1.04 52.66, -4.65 58.31, -12.04 72.64" stroke="#000000" stroke-width="1" fill="none"></path></g></g><mask></mask><g stroke-linecap="round"><g transform="translate(322.2044512352137 431.76797049386164) rotate(0 2.691977173278133 50.026456475968985)"><path d="M-0.45 -0.66 C0.7 15.88, 4.75 82.48, 5.83 99.35 M1.52 1.61 C2.59 18.32, 4.17 84.54, 4.8 100.71" stroke="#000000" stroke-width="1" fill="none"></path></g><g transform="translate(322.2044512352137 431.76797049386164) rotate(0 2.691977173278133 50.026456475968985)"><path d="M-7.43 72.58 C-4.51 78.88, -0.18 84, 4.34 102.37 M-6.46 72.15 C-2.99 81.56, 0.6 92.76, 3.94 100.62" stroke="#000000" stroke-width="1" fill="none"></path></g><g transform="translate(322.2044512352137 431.76797049386164) rotate(0 2.691977173278133 50.026456475968985)"><path d="M13.08 71.95 C11.66 78.3, 11.65 83.56, 4.34 102.37 M14.05 71.52 C10.47 80.94, 7.01 92.37, 3.94 100.62" stroke="#000000" stroke-width="1" fill="none"></path></g></g><mask></mask><g transform="translate(573.2919616699219 77.6002197265625) rotate(0 42 12.5)"><text x="0" y="18" font-family="Virgil, Segoe UI Emoji" font-size="20px" fill="#364fc7" text-anchor="start" style="white-space: pre;" direction="ltr">Frontend</text></g><g transform="translate(584.5368347167969 302.5321044921875) rotate(0 40 12.5)"><text x="0" y="18" font-family="Virgil, Segoe UI Emoji" font-size="20px" fill="#364fc7" text-anchor="start" style="white-space: pre;" direction="ltr">Backend</text></g><g stroke-linecap="round" transform="translate(10.5997314453125 203.95498657226562) rotate(0 347.1056365966797 122.46128845214844)"><path d="M-0.14 0.22 C157.56 -1.08, 315.5 -0.27, 694.24 -0.58 M694.16 0.82 C693.46 70.49, 694.26 136.53, 693.22 245.19 M694.28 245.51 C480.01 245.98, 266.79 245.48, -0.78 244.88 M-1.18 244.39 C0.43 152.23, 2.38 55.48, -1.42 1.42" stroke="#364fc7" stroke-width="1.5" fill="none" stroke-dasharray="8 9"></path></g><g stroke-linecap="round" transform="translate(10 517.5323181152344) rotate(0 351.0046844482422 94.05766296386719)"><path d="M0.67 0.23 C274.45 1.55, 547.61 1.44, 701.5 -0.38 M700.87 1.93 C702.71 43.33, 703.93 89.88, 702.97 188.85 M701.3 188.67 C547.38 185.91, 393.04 186.37, -0.07 188.3 M-1.78 187.96 C-0.45 113.65, -1.64 42.93, -1.59 0.95" stroke="#364fc7" stroke-width="1.5" fill="none" stroke-dasharray="8 9"></path></g><g stroke-linecap="round" transform="translate(10.25250244140625 10) rotate(0 347.9951934814453 84.42469787597656)"><path d="M-0.12 -0.71 C205.17 0.19, 409.54 0.12, 696.17 -0.58 M696.33 -0.62 C698.38 66.96, 697.35 133.3, 697.38 166.91 M696.69 169.42 C556.69 167.46, 416.17 167.63, -0.04 169.24 M-1.63 167.55 C-3.27 101.47, -2 36.28, -0.67 1.39" stroke="#364fc7" stroke-width="1.5" fill="none" stroke-dasharray="8 9"></path></g><g transform="translate(577.1558532714844 614.9525146484375) rotate(0 39 12.5)"><text x="0" y="18" font-family="Virgil, Segoe UI Emoji" font-size="20px" fill="#364fc7" text-anchor="start" style="white-space: pre;" direction="ltr">Storage</text></g></svg>